<?xml version="1.0" encoding="UTF-8" standalone="no"?>
<!-- Created with Inkscape (http://www.inkscape.org/) -->

<svg
   width="1920"
   height="1080"
   viewBox="0 0 507.99999 285.75"
   version="1.1"
   id="svg5"
   inkscape:version="1.2.1 (9c6d41e410, 2022-07-14)"
   sodipodi:docname="drawing.svg"
   xmlns:inkscape="http://www.inkscape.org/namespaces/inkscape"
   xmlns:sodipodi="http://sodipodi.sourceforge.net/DTD/sodipodi-0.dtd"
   xmlns="http://www.w3.org/2000/svg"
   xmlns:svg="http://www.w3.org/2000/svg">
  <sodipodi:namedview
     id="namedview7"
     pagecolor="#505050"
     bordercolor="#eeeeee"
     borderopacity="1"
     inkscape:showpageshadow="0"
     inkscape:pageopacity="0"
     inkscape:pagecheckerboard="0"
     inkscape:deskcolor="#505050"
     inkscape:document-units="mm"
     showgrid="false"
     inkscape:zoom="0.27622351"
     inkscape:cx="1089.6973"
     inkscape:cy="984.70982"
     inkscape:window-width="1858"
     inkscape:window-height="1057"
     inkscape:window-x="-8"
     inkscape:window-y="-8"
     inkscape:window-maximized="1"
     inkscape:current-layer="layer2" />
  <defs
     id="defs2" />
  <g
     inkscape:groupmode="layer"
     id="layer2"
     inkscape:label="Layer 2"
     style="display:inline">
    <path
       style="fill:#ffffff;fill-opacity:1;stroke-width:0.499999;stroke-dashoffset:0.987404;paint-order:stroke markers fill"
       d="M 264.84817,60.824084 219.34984,162.83613 158.04683,64.176592 74.713046,208.33446 3.3525084,83.812712 -79.981273,228.92844 l 30.651505,-351.05554 695.884988,69.923753 -0.95787,256.706367 -68.9659,45.0194 -63.21872,-84.77057 -27.77794,70.88161 -61.303,-90.99666 54.11906,-95.785962 -103.44883,-42.145821 -79.50235,7.183946 z"
       id="path241"
       sodipodi:nodetypes="ccccccccccccccccc"
       inkscape:export-filename="path241.png"
       inkscape:export-xdpi="78.222595"
       inkscape:export-ydpi="78.222595" />
  </g>
  <g
     inkscape:groupmode="layer"
     id="layer3-7-4"
     inkscape:label="Layer 3"
     transform="translate(-166.47558,173.37258)"
     style="display:none">
    <path
       id="rect3063"
       style="fill:#ffffff;fill-opacity:1;stroke-width:0.499999;stroke-dashoffset:0.987404;paint-order:stroke markers fill"
       d="m -24.138625,-318.96731 v 634.1029 H 950.0045 v -634.1029 z m 603.451535,68.00825 70.88198,68.00774 c -0.23806,-0.30461 38.31394,175.2885219 38.31394,175.2885219 L 605.17542,70.881762 525.67278,50.76671 417.43494,68.966116 420.30815,-3.8315074 374.33111,-43.103529 439.46564,-189.65634 Z"
       sodipodi:nodetypes="ccccccccccccccc"
       inkscape:export-filename="rect3063.png"
       inkscape:export-xdpi="78.222595"
       inkscape:export-ydpi="78.222595" />
  </g>
  <g
     inkscape:groupmode="layer"
     id="layer3-7"
     inkscape:label="Layer 3"
     transform="translate(1.1498381,2.3946478)"
     style="display:none">
    <path
       style="fill:#ffffff;fill-opacity:1;stroke-width:0.499999;stroke-dashoffset:0.987404;paint-order:stroke markers fill"
       d="M 311.30435,8.1418064 292.14717,79.023415 342.43479,78.065554 386.01741,108.71707 437.2629,101.53311 423.85286,73.276257 450.194,91.954518 502.49232,48.389392 471.26691,-22.5097 Z"
       id="path2285-6"
       sodipodi:nodetypes="cccccccccc"
       inkscape:export-filename="path2285-6.png"
       inkscape:export-xdpi="78.222595"
       inkscape:export-ydpi="78.222595" />
  </g>
  <g
     inkscape:label="Layer 1"
     inkscape:groupmode="layer"
     id="layer1"
     style="display:none">
    <path
       style="fill:#ffffff;stroke-width:0.499999;stroke-dashoffset:0.987404;paint-order:stroke markers fill"
       d="M -6.2260873,60.345153 19.157191,147.9893 140.32643,74.234116 110.15385,139.8475 251.43814,57.950504 l -16.28361,45.498326 117.81672,-80.4602 70.40269,36.398665 48.85084,86.686295 -126.91641,51.24548 -20.11506,36.39866 97.70168,-38.79331 -6.22608,31.13043 29.38419,-14.90325 42.93421,14.90326 52.20336,-30.17258 88.6466,16.80553 4.74471,-65.65637 -56.03481,-96.264881 71.83948,-100.096327 -728.452205,-46.456189 z"
       id="path236"
       sodipodi:nodetypes="cccccccccccccccccccccc"
       inkscape:export-filename="path236.png"
       inkscape:export-xdpi="78.222595"
       inkscape:export-ydpi="78.222595" />
  </g>
  <g
     inkscape:groupmode="layer"
     id="layer3"
     inkscape:label="Layer 3"
     style="display:none">
    <path
       style="fill:#ffffff;fill-opacity:1;stroke-width:0.499999;stroke-dashoffset:0.987404;paint-order:stroke markers fill"
       d="M -101.53311,282.56857 8.6207361,252.87493 135.0582,293.10502 l 73.75519,-45.97725 113.98528,38.31438 79.50235,-43.10368 120.69032,19.15719 161.87824,-37.35652 -3.83143,90.0388 0.95787,109.196 -806.51776,-22.98864 z"
       id="path2480"
       inkscape:export-filename="path2480.png"
       inkscape:export-xdpi="78.222595"
       inkscape:export-ydpi="78.222595" />
  </g>
</svg>
